Coordinates
version=1
nRows=10
nColumns=40
inDegrees=yes

Units are S.I. units (second, meters, Newtons, ...)
Angles are in degrees.

endheader
time	pelvis_tilt	pelvis_list	pelvis_rotation	pelvis_tx	pelvis_ty	pelvis_tz	hip_flexion_r	hip_adduction_r	hip_rotation_r	knee_angle_r	knee_angle_r_beta	ankle_angle_r	subtalar_angle_r	mtp_angle_r	hip_flexion_l	hip_adduction_l	hip_rotation_l	knee_angle_l	knee_angle_l_beta	ankle_angle_l	subtalar_angle_l	mtp_angle_l	lumbar_extension	lumbar_bending	lumbar_rotation	arm_flex_r	arm_add_r	arm_rot_r	elbow_flex_r	pro_sup_r	wrist_flex_r	wrist_dev_r	arm_flex_l	arm_add_l	arm_rot_l	elbow_flex_l	pro_sup_l	wrist_flex_l	wrist_dev_l
     23.15750000	     -1.71307413	     -1.98588933	     -3.52342824	      0.99364934	      0.93262899	      0.49002954	     17.00046770	      0.89839573	     -8.76494221	     18.14346358	     18.14346358	      5.76517311	      3.23339349	     -3.79194870	      0.16357132	     -6.68479481	    -10.92175013	     36.93613738	     36.93613738	      8.33997555	    -13.04295123	    -12.14711285	     -9.83917937	      0.80995937	      3.66373757	     -4.17866378	    -14.43329633	     -7.42146533	     41.93885559	     45.76463129	      0.00000000	      0.00000000	     12.03836141	    -12.81079132	     -5.47985853	     83.57996529	     47.83408364	      0.00000000	      0.00000000
     23.16971429	     -1.44052699	     -1.29879456	     -3.86955450	      0.99539264	      0.93458094	      0.49210118	     15.89832042	      0.21954186	     -8.91272855	     17.75360887	     17.75360887	      6.10144318	      4.58358270	     -4.66164535	      1.36390961	     -6.19491378	    -10.51991005	     40.18539367	     40.18539367	      6.05733434	    -15.26949444	    -11.19315238	    -10.01205943	      0.01905785	      4.41493464	     -3.33638349	    -14.87851162	     -7.25455416	     43.87842537	     45.68552655	      0.00000000	      0.00000000	     11.31941148	    -12.40513367	     -5.31389992	     81.57367735	     47.78925557	      0.00000000	      0.00000000
     23.18192857	     -1.31121875	     -1.04584644	     -3.92087697	      0.99609864	      0.93587216	      0.49400716	     14.91791302	      0.05116696	     -8.97518105	     17.23726757	     17.23726757	      6.42383331	      5.15105409	     -4.84659181	      3.13664248	     -6.43275355	    -10.18648524	     43.96280156	     43.96280156	      4.23413120	    -16.43504108	    -10.40008288	    -10.17222994	     -0.30257663	      4.88300588	     -2.03706395	    -15.26372839	     -7.28960809	     44.89941793	     45.65670793	      0.00000000	      0.00000000	     10.37742280	    -12.15008690	     -5.02949111	     80.40890187	     47.74520305	      0.00000000	      0.00000000
     23.19414286	     -1.29216960	     -0.85951816	     -3.67763384	      0.99561648	      0.93660991	      0.49533059	     14.21341573	     -0.18285593	     -9.56747124	     16.91352076	     16.91352076	      6.57303148	      5.96195469	     -5.60210386	      5.56813156	     -6.58472990	     -9.23160505	     48.34384988	     48.34384988	      4.68601470	    -16.65331580	     -4.27690873	    -10.34056555	     -0.49252536	      5.64891575	     -1.67780669	    -16.10628323	     -6.76171858	     48.07659343	     45.51654349	      0.00000000	      0.00000000	     10.46442012	    -11.65901568	     -4.25561720	     77.38254943	     47.64756452	      0.00000000	      0.00000000
     23.20635714	     -1.37227832	     -1.11772509	     -3.09767193	      0.99404235	      0.93670940	      0.49644906	     13.65336358	      0.09278576	    -10.14122989	     16.61320031	     16.61320031	      6.86704813	      6.07739032	     -5.63865135	      8.15180839	     -7.30504121	     -8.16876073	     52.24775786	     52.24775786	      3.37500655	    -17.44651878	     -3.72806414	    -10.55168926	     -0.22860779	      5.59354448	     -0.03401973	    -16.55949843	     -6.91922940	     48.98117801	     45.50087155	      0.00000000	      0.00000000	      9.73922571	    -11.46912124	     -3.92881653	     76.31011533	     47.60263818	      0.00000000	      0.00000000
     23.21857143	     -1.64357019	     -1.51561384	     -2.22374985	      0.99119247	      0.93619331	      0.49709875	     13.49564562	      0.42979695	    -11.06375065	     16.54866377	     16.54866377	      7.15832833	      6.18345924	     -5.52896313	     11.43296731	     -7.93901478	     -6.53444531	     56.48994351	     56.48994351	      4.42409635	    -17.29083009	      1.92953722	    -10.63453603	      0.22876272	      5.54893411	      1.21136804	    -17.41305707	     -6.28889948	     51.20795313	     45.40463070	      0.00000000	      0.00000000	      9.92571354	    -11.02226468	     -3.57624289	     73.04395699	     47.52409229	      0.00000000	      0.00000000
     23.23078571	     -1.82545307	     -2.28359716	     -1.17317636	      0.98764538	      0.93538934	      0.49772618	     13.25962049	      1.18410896	    -12.04511454	     16.42326570	     16.42326570	      7.35480247	      5.93174009	     -5.50553513	     14.49971264	     -8.95229812	     -4.87996859	     59.91977029	     59.91977029	      3.75474334	    -17.63522040	      1.95291589	    -10.98376891	      1.02547506	      5.33403624	      3.09901832	    -18.09010913	     -6.52815012	     52.12193464	     45.39382751	      0.00000000	      0.00000000	      9.46974670	    -10.73569256	     -3.19984223	     72.27258122	     47.47958828	      0.00000000	      0.00000000
     23.24300000	     -2.25832894	     -3.15190082	      0.03952281	      0.98351166	      0.93407698	      0.49819238	     13.37101318	      2.04905243	    -13.00595596	     16.30006973	     16.30006973	      7.59531792	      5.34964199	     -5.16296553	     18.04859288	     -9.84525318	     -2.93916136	     63.10844905	     63.10844905	      4.20400932	    -17.50622965	      3.97525517	    -10.93652334	      2.01781537	      4.34028361	      5.09392563	    -18.56592429	     -6.06008793	     54.02594540	     45.32154723	      0.00000000	      0.00000000	      9.08851012	    -10.86727080	     -2.90593166	     69.27741036	     47.40368266	      0.00000000	      0.00000000
     23.25521429	     -2.51011449	     -4.06444555	      1.20519220	      0.97925486	      0.93291515	      0.49860137	     13.34438549	      2.93175217	    -14.08555105	     16.19880479	     16.19880479	      7.77460632	      5.00372461	     -5.11449675	     21.22315418	    -10.65023014	     -1.11635353	     65.49053949	     65.49053949	      4.14293322	    -17.54014747	      3.91616250	    -11.18235483	      3.00713922	      4.28396817	      6.97211785	    -19.50190356	     -6.25581938	     54.86674550	     45.31170050	      0.00000000	      0.00000000	      8.74897516	    -10.38941135	     -2.59744859	     68.54204075	     47.36266058	      0.00000000	      0.00000000
     23.26742857	     -3.00471443	     -4.98516242	      2.31982524	      0.97511833	      0.93157163	      0.49918581	     13.52708157	      3.88284074	    -14.95649003	     15.89980879	     15.89980879	      7.95885295	      4.47573303	     -4.62160032	     24.60529297	    -11.32627038	      0.64805585	     67.33507779	     67.33507779	      4.82450618	    -17.23811955	      5.26919141	    -10.98601678	      3.99981278	      3.33051098	      8.98894045	    -19.93053490	     -5.41007719	     56.66990309	     45.23034668	      0.00000000	      0.00000000	      8.30717956	    -10.46796383	     -2.49776933	     65.09474900	     47.29265206	      0.00000000	      0.00000000
